<?xml version="1.0" encoding="UTF-8"?>
<svg id="_图层_1" data-name="图层_1" xmlns="http://www.w3.org/2000/svg" version="1.1" viewBox="0 0 200 200">
  <!-- Generator: Adobe Illustrator 30.2.1, SVG Export Plug-In . SVG Version: 2.1.1 Build 1)  -->
  <defs>
    <style>
      .st0 {
        fill: #ffe20d;
      }

      .st1 {
        fill: #17ba55;
      }

      .st2 {
        fill: #f66e2e;
      }

      .st3 {
        fill: #cf411c;
      }

      .st4 {
        fill: #ffd217;
      }

      .st5 {
        fill: #fc5965;
      }

      .st6 {
        fill: #b03414;
      }

      .st7 {
        fill: #fd9816;
      }
    </style>
  </defs>
  <path class="st2" d="M124.01,81.65c-21.99-22.48-48.13-31.64-58.27-22.46l-.5.48-.33.34-.38.46-.43.57-.48.67-.52.78-.54.86-.91,1.51-.63,1.1-1.39,2.53-1.11,2.14-1.18,2.35-1.24,2.54-1.77,3.73-1.4,3.03-1.97,4.36-2.07,4.72-2.76,6.42-2.93,6.97-3.76,9.11-4.71,11.65-5.05,12.75-4.61,11.81-7.39,19.22-5.27,13.92c-.48,1.28-.28,2.72.53,3.82l.33.39,7.38,7.55c.94.96,2.28,1.33,3.54,1.02l.47-.15,20.07-7.96,10.33-4.16,13.55-5.52,9.02-3.73,8.47-3.54,7.92-3.37,8.77-3.8,7.98-3.54,6.05-2.75,3.35-1.56,5.17-2.46,2.83-1.38,1.77-.88,2.49-1.27,2.29-1.2,2.09-1.14,1.27-.71,1.75-1.02,1.04-.63.94-.6.85-.56.75-.52.64-.47.53-.42.43-.36.4-.38c9.87-10.1.97-37.41-21.41-60.29Z"/>
  <path class="st7" d="M65.74,59.18c10.14-9.18,36.28-.02,58.27,22.46,15.95,16.3,25.05,34.86,25.4,47.83l-.22.2-.43.35-.53.42-.65.48-.75.52-.85.56-.95.6-1.04.63-1.75,1.02-1.26.71-2.09,1.14-2.29,1.2-2.49,1.27-1.77.88-2.83,1.38-5.16,2.46-3.36,1.55-6.05,2.75-7.99,3.54-8.78,3.8-7.92,3.36-8.47,3.54-9.02,3.73-13.55,5.52-10.33,4.16-20.07,7.96-13.65,6.18-1.92-1.96-.33-.38c-.71-.95-.96-2.17-.68-3.32l.15-.49,5.28-13.92,7.39-19.23,4.61-11.8,5.05-12.75,4.71-11.65,3.76-9.11,2.93-6.98,2.76-6.41,2.07-4.72,1.97-4.36,1.4-3.03,1.77-3.73,1.24-2.54,1.18-2.35,1.11-2.14,1.38-2.53.63-1.1.91-1.51.55-.86.52-.78.48-.67.43-.57.38-.46.32-.34.5-.48h0Z"/>
  <path class="st4" d="M76.55,55.72h-.55c-4.3.08-7.75,1.25-10.17,3.39l-.58.56-.33.34-.38.46-.43.57-.48.67-.52.78-.54.86-.91,1.51-.63,1.1-1.39,2.53-1.11,2.14-1.18,2.35-1.24,2.54-1.77,3.73-1.4,3.03-1.97,4.36-2.07,4.72-2.85,6.63.3,1.8c4.46,25.96,14.03,50.78,28.15,73.01l1.51,2.33,1.63-.67,8.47-3.54,1.98-.85-.58-1.48c-13.81-35.45-17.64-74.25-11.15-111.8l.19-1.08h0s0,0,0,0ZM31.58,133.48l-1.9,4.79-4.7,12.05.64,1.85c4.12,11.57,9.32,22.74,15.51,33.35l1.82,3.07,1.79-.71,7.53-3.04-.89-1.57c-8.16-14.62-14.51-30.18-18.91-46.33l-.91-3.46h0Z"/>
  <path class="st6" d="M124.01,81.65c-22.36-22.86-49.02-31.95-58.85-21.89-9.87,10.09-.97,37.4,21.41,60.28,22.37,22.87,49.02,31.95,58.86,21.9,9.87-10.1.97-37.41-21.41-60.29h0Z"/>
  <path class="st1" d="M115.28,22.52c.99-.35,2.07.17,2.41,1.16,0,0,0,.01,0,.02,6.54,18.83,3,34.65-7.09,48.48-1.15,1.57-2.35,3.07-3.63,4.57l-1.57,1.78-3.46,3.71c-.7.77-1.88.82-2.65.13,0,0-.02-.02-.03-.02-.77-.72-.81-1.93-.1-2.71l3.44-3.69.25-.27c1.72-1.92,3.25-3.78,4.7-5.76,9.4-12.87,12.65-27.4,6.57-44.93-.35-.99.17-2.09,1.16-2.45h0Z"/>
  <path class="st5" d="M132.25,104.67c18.11-13.58,35.77-18.16,52.96-8.63.92.5,1.25,1.67.75,2.6-.49.92-1.63,1.26-2.55.77,0,0-.02,0-.03-.01-15.59-8.65-31.83-4.44-48.87,8.35-2.35,1.77-4.62,3.62-6.84,5.55l-7.04,6.26-.4.33c-.8.66-1.98.55-2.64-.25,0-.01-.02-.02-.03-.03-.66-.83-.53-2.02.28-2.7l5.54-4.93c2.85-2.56,5.81-5,8.86-7.31h0Z"/>
  <path class="st4" d="M143.57,55.55c1.02-.24,2.04.39,2.28,1.41,0,0,0,0,0,0,2.49,10.62-3.94,20.64-16.34,30.5-1.93,1.53-3.93,3.01-6.1,4.51l-3.79,2.55-3.82,2.5c-.87.57-2.04.33-2.61-.53,0,0-.01-.02-.02-.02-.49-.76-.39-1.76.25-2.41l.32-.26,5.9-3.87c2.75-1.85,5.2-3.62,7.52-5.47,11.35-9.02,17.03-17.88,15-26.6-.25-1.02.38-2.06,1.4-2.31h0Z"/>
  <path class="st3" d="M53.37,46.75l-.04-.69c-.08-.73-.28-1.45-.58-2.13-.3-.64-.67-1.24-1.11-1.78-.67-.83-1.41-1.61-2.21-2.31l-1-.86-3.18-2.64c-5.05-4.24-7.08-7.24-6.58-11.05.71-5.5,3.51-8.13,8.86-8.34,1.05-.05,1.87-.94,1.82-1.99-.03-1.05-.91-1.88-1.96-1.84,0,0,0,0,0,0-7.21.29-11.52,4.33-12.47,11.68-.68,5.26,1.68,9.09,7.05,13.76l4.27,3.57c1.12.97,1.89,1.72,2.43,2.42.29.36.5.69.63,1,.14.3.23.62.27.96.17,1.6-.85,3.55-3.01,5.95l-.81.86-2.57,2.6-.96,1.03c-.67.81-.56,2.02.24,2.7.7.6,1.71.58,2.39.03l1.11-1.15,2.72-2.75c3.08-3.23,4.77-6.02,4.71-9.01h0Z"/>
  <path class="st7" d="M145.05,160.9l.69.05c.72.08,1.42.28,2.1.59.6.28,1.18.65,1.77,1.12.73.58,1.46,1.3,2.28,2.24l.86,1,2.61,3.22c4.19,5.12,7.16,7.16,10.93,6.67,5.43-.72,8.03-3.55,8.25-8.97.04-1.05.92-1.87,1.97-1.84,1.05.04,1.86.93,1.82,1.99-.29,7.29-4.29,11.66-11.54,12.62-5.21.68-8.99-1.71-13.6-7.14l-3.53-4.32c-.72-.89-1.52-1.72-2.39-2.46-.3-.25-.63-.46-.99-.63-.3-.14-.62-.23-.95-.27-1.58-.17-3.51.87-5.89,3.05l-.85.81-2.58,2.61-.77.75-.25.22c-.79.67-1.97.58-2.64-.21,0,0-.02-.02-.02-.03-.58-.7-.59-1.71-.03-2.43l1.14-1.13,2.71-2.75c3.2-3.1,5.96-4.81,8.9-4.76h0ZM69.6.34c.85-.6,2.03-.39,2.62.47,0,0,0,.01.01.02,6.55,9.55,8.77,23.02,2.63,42.61-.31,1-1.36,1.56-2.36,1.25,0,0,0,0-.01,0-1-.32-1.56-1.4-1.24-2.4,5.78-18.44,3.76-30.67-2.13-39.27-.59-.87-.38-2.06.48-2.67h0ZM138.64,39.67c2.11.03,3.8,1.76,3.78,3.87.02,2.11-1.67,3.85-3.78,3.87-2.12-.02-3.81-1.76-3.79-3.87h0c-.02-2.11,1.67-3.84,3.78-3.87,0,0,0,0,0,0Z"/>
  <path class="st5" d="M93.21,43.53c2.11.03,3.81,1.76,3.78,3.87.02,2.11-1.68,3.84-3.79,3.87-2.11-.03-3.8-1.76-3.78-3.87-.03-2.11,1.67-3.85,3.78-3.87,0,0,0,0,0,0Z"/>
  <path class="st1" d="M153.78,105.46c2.11.03,3.81,1.76,3.78,3.88.02,2.11-1.67,3.84-3.78,3.87-2.12-.03-3.81-1.76-3.79-3.88-.02-2.11,1.68-3.84,3.79-3.87Z"/>
  <path class="st3" d="M176.49,55.15c2.11.02,3.81,1.75,3.79,3.87.02,2.12-1.68,3.85-3.79,3.87-2.11-.03-3.81-1.76-3.78-3.87-.02-2.11,1.67-3.84,3.78-3.86Z"/>
  <path class="st0" d="M88.62,15.89l-2.6-2.46,3.45-.79c3.53-.81,6.84-3.48,9.17-7.35l2.27-3.8.11,4.45c.11,4.55,1.69,8.55,4.34,11.06l2.6,2.45-3.45.79c-3.52.82-6.85,3.48-9.17,7.36l-2.27,3.8-.11-4.45c-.11-4.54-1.69-8.55-4.35-11.05ZM174.85,112.53l1.64-3.21,1.65,3.21c1.68,3.27,5.05,5.86,9.32,7.15l4.18,1.26-4.18,1.26c-4.27,1.29-7.64,3.88-9.32,7.15l-1.65,3.2-1.64-3.2c-1.68-3.27-5.06-5.86-9.32-7.15l-4.18-1.26,4.18-1.26c4.26-1.29,7.64-3.88,9.32-7.15h0Z"/>
</svg>